<svg id="svg2" xmlns="http://www.w3.org/2000/svg" viewBox="0 0 192 192"><defs><style>.cls-1{fill:#cb2027;}</style></defs><title>logo</title><g id="g62"><path id="path64" class="cls-1" d="M96,3.5A92.52,92.52,0,0,0,62.29,182.17c-.81-7.32-1.54-18.57.32-26.56,1.68-7.22,10.85-46,10.85-46a33.4,33.4,0,0,1-2.77-13.73c0-12.86,7.46-22.46,16.74-22.46,7.89,0,11.7,5.92,11.7,13,0,7.94-5.05,19.8-7.66,30.8-2.18,9.21,4.62,16.71,13.7,16.71,16.44,0,29.08-17.33,29.08-42.36C134.25,69.46,118.33,54,95.61,54,69.29,54,53.84,73.72,53.84,94.12c0,8,3.06,16.48,6.88,21.11a2.76,2.76,0,0,1,.64,2.65c-.7,2.92-2.26,9.2-2.57,10.49-.4,1.69-1.34,2.05-3.09,1.24-11.55-5.38-18.78-22.27-18.78-35.83,0-29.18,21.2-56,61.12-56,32.09,0,57,22.87,57,53.42,0,31.88-20.1,57.53-48,57.53-9.37,0-18.18-4.87-21.2-10.62,0,0-4.64,17.66-5.76,22-2.09,8-7.73,18.11-11.5,24.25A92.51,92.51,0,1,0,96,3.5"/></g></svg>